<?xml version="1.0" encoding="UTF-8"?>
<svg width="300px" height="300px" viewBox="0 0 300 300" version="1.1" xmlns="http://www.w3.org/2000/svg" xmlns:xlink="http://www.w3.org/1999/xlink">
    <!-- Generator: Sketch 49.2 (51160) - http://www.bohemiancoding.com/sketch -->
    <title>blinds</title>
    <desc>Created with Sketch.</desc>
    <defs></defs>
    <g id="blinds" stroke="none" stroke-width="1" fill="none" fill-rule="evenodd">
        <path d="M271.383822,190.24864 L258.125867,190.24864 L258.125867,234.62364 L57.0549333,234.62364 L57.0549333,190.24864 L43.8026667,190.24864 C41.4048,190.24864 39.1747556,189.61532 37.1722667,188.5844 L37.1722667,247.85804 C37.1722667,251.51312 40.1361778,254.48092 43.8026667,254.48092 L271.380978,254.48092 C275.0304,254.48092 277.997156,251.51312 277.997156,247.85804 L277.997156,188.5844 C276.008889,189.61532 273.781689,190.24864 271.383822,190.24864 Z" id="Shape" fill="#DEDEDE" fill-rule="nonzero"></path>
        <ellipse id="Oval" fill="#DEDEDE" fill-rule="nonzero" cx="26.2780444" cy="71.619" rx="4.27804444" ry="4.27136"></ellipse>
        <ellipse id="Oval" fill="#DEDEDE" fill-rule="nonzero" cx="26.2780444" cy="83.973" rx="4.27804444" ry="4.27136"></ellipse>
        <ellipse id="Oval" fill="#DEDEDE" fill-rule="nonzero" cx="26.2780444" cy="96.32984" rx="4.27804444" ry="4.27136"></ellipse>
        <ellipse id="Oval" fill="#DEDEDE" fill-rule="nonzero" cx="26.2780444" cy="108.68668" rx="4.27804444" ry="4.27136"></ellipse>
        <ellipse id="Oval" fill="#DEDEDE" fill-rule="nonzero" cx="26.2780444" cy="121.04352" rx="4.27804444" ry="4.27136"></ellipse>
        <ellipse id="Oval" fill="#DEDEDE" fill-rule="nonzero" cx="26.2780444" cy="133.40036" rx="4.27804444" ry="4.27136"></ellipse>
        <ellipse id="Oval" fill="#DEDEDE" fill-rule="nonzero" cx="26.2780444" cy="145.75152" rx="4.27804444" ry="4.27136"></ellipse>
        <path d="M22,158.12256 C22,155.754 23.9086222,153.84552 26.2780444,153.84552 C28.6417778,153.84552 30.5560889,155.754 30.5560889,158.12256 C30.5560889,160.47408 28.6417778,162.38824 26.2780444,162.38824 C23.9114667,162.38824 22,160.47408 22,158.12256 Z" id="Shape" fill="#DEDEDE" fill-rule="nonzero"></path>
        <ellipse id="Oval" fill="#DEDEDE" fill-rule="nonzero" cx="26.2780444" cy="170.46236" rx="4.27804444" ry="4.27136"></ellipse>
        <ellipse id="Oval" fill="#DEDEDE" fill-rule="nonzero" cx="26.2780444" cy="182.82772" rx="4.27804444" ry="4.27136"></ellipse>
        <path d="M22,195.1732 C22,192.80464 23.9086222,190.89616 26.2780444,190.89616 C28.6417778,190.89616 30.5560889,192.80464 30.5560889,195.1732 C30.5560889,197.52472 28.6417778,199.43888 26.2780444,199.43888 C23.9114667,199.43888 22,197.52756 22,195.1732 Z" id="Shape" fill="#DEDEDE" fill-rule="nonzero"></path>
        <ellipse id="Oval" fill="#DEDEDE" fill-rule="nonzero" cx="26.2780444" cy="207.5272" rx="4.27804444" ry="4.27136"></ellipse>
        <ellipse id="Oval" fill="#DEDEDE" fill-rule="nonzero" cx="26.2780444" cy="219.8812" rx="4.27804444" ry="4.27136"></ellipse>
        <path d="M75.1854222,163.79688 L43.8055111,163.79688 C41.4076444,163.79688 39.1776,163.1522 37.1751111,162.13832 L37.1751111,175.69932 C37.1751111,179.34304 40.1390222,182.30516 43.8055111,182.30516 L75.1882667,182.30516 L75.1882667,163.79688 L75.1854222,163.79688 Z" id="Shape" fill="#DEDEDE" fill-rule="nonzero"></path>
        <rect id="Rectangle-path" fill="#DEDEDE" fill-rule="nonzero" x="80.7235556" y="46.12432" width="7.6032" height="136.18368"></rect>
        <path d="M75.1854222,110.87632 L43.8055111,110.87632 C41.4076444,110.87632 39.1776,110.24016 37.1751111,109.21208 L37.1751111,122.77592 C37.1751111,126.42816 40.1390222,129.39312 43.8055111,129.39312 L75.1882667,129.39312 L75.1882667,110.87632 L75.1854222,110.87632 Z" id="Shape" fill="#DEDEDE" fill-rule="nonzero"></path>
        <path d="M75.1854222,84.41604 L43.8055111,84.41604 C41.4076444,84.41604 39.1776,83.77988 37.1751111,82.74896 L37.1751111,96.31848 C37.1751111,99.97072 40.1390222,102.93568 43.8055111,102.93568 L75.1882667,102.93568 L75.1882667,84.41604 L75.1854222,84.41604 Z" id="Shape" fill="#DEDEDE" fill-rule="nonzero"></path>
        <path d="M43.8055111,46.12432 C40.3324444,46.12432 37.5733333,48.81664 37.2832,52.20192 L27.2423111,52.20192 C24.3523556,52.20192 22,54.54492 22,57.43604 C22,60.32716 24.3523556,62.66732 27.2394667,62.66732 L37.1722667,62.66732 L37.1722667,69.85536 C37.1722667,73.5076 40.1361778,76.47256 43.8026667,76.47256 L75.1854222,76.47256 L75.1854222,46.12432 L43.8055111,46.12432 Z" id="Shape" fill="#DEDEDE" fill-rule="nonzero"></path>
        <path d="M75.1854222,137.33376 L43.8055111,137.33376 C41.4076444,137.33376 39.1776,136.6976 37.1751111,135.66952 L37.1751111,149.2362 C37.1751111,152.89412 40.1390222,155.86192 43.8055111,155.86192 L75.1882667,155.86192 L75.1882667,137.33376 L75.1854222,137.33376 Z" id="Shape" fill="#DEDEDE" fill-rule="nonzero"></path>
        <rect id="Rectangle-path" fill="#DEDEDE" fill-rule="nonzero" x="226.856889" y="46.12432" width="7.6032" height="136.18368"></rect>
        <rect id="Rectangle-path" fill="#DEDEDE" fill-rule="nonzero" x="93.8563556" y="163.79688" width="127.468089" height="18.51112"></rect>
        <path d="M271.383822,163.79688 L239.989689,163.79688 L239.989689,182.308 L271.383822,182.308 C275.033244,182.308 278,179.34588 278,175.70216 L278,162.14116 C276.008889,163.16356 273.781689,163.79688 271.383822,163.79688 Z" id="Shape" fill="#DEDEDE" fill-rule="nonzero"></path>
        <rect id="Rectangle-path" fill="#DEDEDE" fill-rule="nonzero" x="93.8563556" y="137.33376" width="127.468089" height="18.52532"></rect>
        <path d="M271.383822,137.33376 L239.989689,137.33376 L239.989689,155.85908 L271.383822,155.85908 C275.033244,155.85908 278,152.89128 278,149.23336 L278,135.66952 C276.008889,136.6976 273.781689,137.33376 271.383822,137.33376 Z" id="Shape" fill="#DEDEDE" fill-rule="nonzero"></path>
        <rect id="Rectangle-path" fill="#DEDEDE" fill-rule="nonzero" x="93.8563556" y="110.87632" width="127.468089" height="18.5168"></rect>
        <path d="M271.383822,110.87632 L239.989689,110.87632 L239.989689,129.39312 L271.383822,129.39312 C275.033244,129.39312 278,126.42816 278,122.77592 L278,109.21492 C276.008889,110.24016 273.781689,110.87632 271.383822,110.87632 Z" id="Shape" fill="#DEDEDE" fill-rule="nonzero"></path>
        <rect id="Rectangle-path" fill="#DEDEDE" fill-rule="nonzero" x="93.8563556" y="84.41604" width="127.468089" height="18.51964"></rect>
        <path d="M271.383822,84.41604 L239.989689,84.41604 L239.989689,102.93568 L271.383822,102.93568 C275.033244,102.93568 278,99.97072 278,96.31848 L278,82.7518 C276.008889,83.77988 273.781689,84.41604 271.383822,84.41604 Z" id="Shape" fill="#DEDEDE" fill-rule="nonzero"></path>
        <rect id="Rectangle-path" fill="#DEDEDE" fill-rule="nonzero" x="93.8563556" y="46.12432" width="127.468089" height="30.35108"></rect>
        <path d="M271.383822,46.12432 L239.989689,46.12432 L239.989689,76.4754 L271.383822,76.4754 C275.033244,76.4754 278,73.51328 278,69.8582 L278,52.74152 C278,49.08928 275.033244,46.12432 271.383822,46.12432 Z" id="Shape" fill="#DEDEDE" fill-rule="nonzero"></path>
    </g>
</svg>