<?xml version="1.0" encoding="UTF-8"?>
<svg width="300px" height="300px" viewBox="0 0 300 300" version="1.1" xmlns="http://www.w3.org/2000/svg" xmlns:xlink="http://www.w3.org/1999/xlink">
    <!-- Generator: Sketch 49.2 (51160) - http://www.bohemiancoding.com/sketch -->
    <title>cabinets</title>
    <desc>Created with Sketch.</desc>
    <defs></defs>
    <g id="cabinets" stroke="none" stroke-width="1" fill="none" fill-rule="evenodd">
        <path d="M69.7787772,47.5738026 L69.7787772,52.8085647 C105.33557,50.9695401 127.846171,50.0271931 149.884423,50.0392399 C172.007136,50.0392399 194.899193,51.0269602 231.214984,52.8580358 L231.214984,47.5738026 L69.7787772,47.5738026 Z M149.884423,52.1580087 C122.009423,52.1580087 94.3385848,53.5872421 39,56.5440092 L39,107.671193 L69.7787772,107.671193 L69.7787772,112.261447 L231.214984,112.261447 L231.214984,107.671193 L262,107.671193 L262,56.5440092 C205.838523,53.6497229 177.759423,52.173561 149.884423,52.1580087 Z M125.137038,80.0601754 C125.632371,83.0762635 128.226832,85.3691689 131.398506,85.3691689 L169.601494,85.3691689 C172.764731,85.3691689 175.357696,83.0889523 175.86293,80.0849357 C175.921182,80.4306661 175.968632,80.7814573 175.968632,81.1443201 C175.968632,84.6586995 173.128875,87.4879624 169.601466,87.4879624 L131.398479,87.4879624 C127.87107,87.4879624 125.031316,84.6586995 125.031316,81.1443201 C125.031316,80.7728912 125.076214,80.4138548 125.137018,80.0601754 L125.137038,80.0601754 Z M39,114.380216 L39,175.511687 L69.7787772,175.511687 L69.7787772,180.102336 L231.214984,180.102336 L231.214984,175.511687 L262,175.511687 L262,114.380216 L39,114.380216 Z M125.137038,143.861807 C125.632371,146.877895 128.226832,149.170751 131.398506,149.170751 L169.601494,149.170751 C172.764731,149.170751 175.357696,146.890979 175.86293,143.886567 C175.921182,144.232594 175.968632,144.583064 175.968632,144.945951 C175.968632,148.460282 173.128875,151.289569 169.601466,151.289569 L131.398479,151.289569 C127.87107,151.289569 125.031316,148.460282 125.031316,144.945951 C125.031316,144.574424 125.076214,144.215486 125.137018,143.861807 L125.137038,143.861807 Z M39,182.221154 L39,233.34187 C149.67714,241.053845 149.677108,241.376247 262,233.34187 L262,182.221154 L39,182.221154 Z M125.137038,213.276418 C125.632371,216.29258 128.226832,218.585683 131.398506,218.585683 L169.601494,218.585683 C172.764731,218.585683 175.357696,216.305417 175.86293,213.301104 C175.921182,213.647205 175.968632,213.997749 175.968632,214.360637 C175.968632,217.874967 173.128875,220.704254 169.601466,220.704254 L131.398479,220.704254 C127.87107,220.704254 125.031316,217.874967 125.031316,214.360637 C125.031316,213.989109 125.076214,213.630171 125.137018,213.276418 L125.137038,213.276418 Z M65.4448713,236.210162 L65.4448713,243.334358 C65.4448713,248.6061 69.7045033,252.849908 74.9956169,252.849908 L94.0971105,252.849908 C99.3882241,252.849908 103.647859,248.6061 103.647859,243.334358 L103.647859,239.177445 C89.6086111,238.389708 76.4342146,237.275866 65.4448713,236.210162 Z M235.555097,236.210162 C224.565753,237.275866 211.391357,238.389708 197.352112,239.177445 L197.352112,243.334358 C197.352112,248.6061 201.611744,252.849908 206.902857,252.849908 L226.004351,252.849908 C231.295464,252.849908 235.555097,248.6061 235.555097,243.334358 L235.555097,236.210162 Z" id="Shape" fill="#DEDEDE" fill-rule="nonzero"></path>
    </g>
</svg>