<?xml version="1.0" encoding="UTF-8"?>
<svg width="300px" height="300px" viewBox="0 0 300 300" version="1.1" xmlns="http://www.w3.org/2000/svg" xmlns:xlink="http://www.w3.org/1999/xlink">
    <!-- Generator: Sketch 49.2 (51160) - http://www.bohemiancoding.com/sketch -->
    <title>calendar</title>
    <desc>Created with Sketch.</desc>
    <defs></defs>
    <g id="calendar" stroke="none" stroke-width="1" fill="none" fill-rule="evenodd">
        <path d="M16.6677686,284.708791 C20.3603306,290.242425 25.4181818,297.835469 125.695868,297.835469 C159.071074,297.835469 196.175207,296.797499 224.955372,295.058735 C278.343802,291.842352 280.591736,288.245821 283.699174,283.280757 C290.257851,272.775448 292.505785,187.499975 292.892562,170.50901 C295.289256,64.4410919 287.276033,57.1587774 282.971901,53.2449053 C280,50.53759 274.919008,45.9559795 223.778512,44.2800225 C223.669421,37.4571913 222.786777,30.7203067 220.704132,24.7569407 C216.595041,12.9690454 209.414876,7.96100796 204.109091,5.83879013 C192.102479,1.05223028 178.459504,3.2670059 168.492562,11.6434856 C159.236364,19.424951 154.935537,31.2492083 156.522314,43.7742603 C144.790083,43.9064857 132.965289,44.1378801 121.41157,44.4585268 C121.309091,37.5761942 120.426446,30.7765025 118.330579,24.7635519 C114.221488,12.9756566 107.041322,7.9742305 101.738843,5.8454014 C89.7256198,1.04231338 76.0793388,3.27031154 66.1157025,11.6467913 C56.0363636,20.1191344 51.7454545,33.3912599 54.6446281,47.1427026 C54.6876033,47.3377351 54.7735537,47.5096281 54.8198347,47.6980493 C21.461157,50.3623913 18.8892562,53.3506856 16.1289256,56.7224336 C13.6198347,59.7867574 5.98347107,69.1185657 6.86280992,170.793295 C7.18347107,208.335394 8.8892562,273.04651 16.6677686,284.708791 Z M265.593388,269.529314 C249.282645,272.848172 189.745455,276.315783 125.695868,276.315783 C67.4809917,276.315783 41.8380165,273.377074 34.2049587,271.241633 C29.5735537,254.439089 27.4842975,186.630593 28.4099174,133.866043 C33.2991736,133.918934 40,133.948684 49.107438,133.948684 C80.7867769,133.948684 141.22314,133.598287 253.067769,132.646264 C261.295868,132.576846 267.719008,132.527261 271.860126,132.487594 C271.957025,184.448874 268.796694,250.902059 265.593388,269.529314 Z M178.076033,42.7065401 C176.360331,34.5713717 180.009917,30.0724022 182.33719,28.1121605 C186.152066,24.9023886 191.563636,23.9966446 196.115702,25.8213552 C198.307438,26.7006542 199.728926,29.9732331 200.383471,31.840917 C201.590083,35.3019171 202.142149,39.4604063 202.27438,43.7940941 C194.971901,43.694925 186.995041,43.6420349 178.257851,43.6420349 C178.231405,43.6420349 178.198347,43.6420349 178.171901,43.6420349 C178.135537,43.3313051 178.142149,43.0205754 178.076033,42.7065401 Z M75.6991736,42.7065401 C73.9867769,34.5713717 77.6363636,30.0724022 79.9636364,28.1121605 C83.785124,24.9023886 89.2033058,23.9966446 93.7454545,25.8213552 C95.9371901,26.7006542 97.3586777,29.9732331 98.0132231,31.840917 C99.3421488,35.6589257 99.8909091,40.3264827 99.9305785,45.1593214 C91.7355372,45.4799681 83.8743802,45.8468936 76.5487603,46.2534867 C76.2842975,46.2700149 76.0661157,46.2865431 75.8016529,46.29646 C75.9504132,45.1295707 75.9570248,43.9230139 75.6991736,42.7065401 Z M96.5190083,66.8244549 C95.8214876,68.8111417 95.0677686,70.6689087 94.214876,72.1564445 C91.2661157,77.3165412 93.061157,83.8848384 98.2214876,86.8334651 C99.9041322,87.7954049 101.735537,88.2515826 103.547107,88.2515826 C107.282645,88.2515826 110.915702,86.3012578 112.902479,82.8303408 C115.441322,78.3908726 117.540496,72.5002306 119.064463,66.0244911 C137.533884,65.482367 157.642975,65.1584147 178.257851,65.1584147 C185.880992,65.1584147 192.889256,65.2046936 199.401653,65.2906401 C198.581818,67.902092 197.649587,70.2920663 196.581818,72.1597502 C193.636364,77.3198468 195.431405,83.888144 200.58843,86.8367707 C202.277686,87.7987106 204.109091,88.2548882 205.917355,88.2548882 C209.652893,88.2548882 213.28595,86.3045634 215.272727,82.8336464 C217.841322,78.3313712 219.970248,72.3481714 221.497521,65.763346 C248.816529,66.6261168 262.720661,68.2425724 267.980165,69.5416871 C270.003306,76.0967618 271.120661,91.4778826 271.593388,110.974519 C267.414876,111.007576 261.034711,111.060466 252.88595,111.129884 C203.933884,111.546394 66.3933884,112.703367 28.985124,112.376109 C29.6991736,93.6232399 30.8991736,78.7148249 32.6214876,71.9019106 C41.4280992,70.0507549 65.2528926,68.1367921 96.5190083,66.8244549 Z" id="Shape" fill="#FFFFFF" fill-rule="nonzero"></path>
        <path d="M233.824793,152.073482 C230.710744,149.247164 227.480992,147.511706 201.335537,147.511706 C158.31405,147.511706 156.036364,150.304968 153.153719,153.83208 C146.489256,161.97386 148.786777,216.308587 152.829752,222.357899 C156.119008,227.303129 160.198347,229.316261 187.715702,229.316261 C230.710744,229.316261 232.581818,226.327967 235.414876,221.78933 C236.654545,219.805949 238.357025,217.082105 239.008264,188.531334 C239.676033,158.919453 237.471074,155.382423 233.824793,152.073482 Z M216.680992,206.824719 C210.195041,207.333787 199.45124,207.79327 187.715702,207.79327 C179.996694,207.79327 174.628099,207.585015 171.133884,207.340398 C170.396694,197.777195 170.238017,179.609424 170.809917,170.009859 C177.47438,169.507403 188.82314,169.028086 201.332231,169.028086 C208.730579,169.028086 213.940496,169.203284 217.395041,169.408234 C217.887603,178.822683 217.404959,196.845006 216.680992,206.824719 Z" id="Shape" fill="#FFFFFF" fill-rule="nonzero"></path>
    </g>
</svg>