<?xml version="1.0" encoding="UTF-8"?>
<svg width="300px" height="300px" viewBox="0 0 300 300" version="1.1" xmlns="http://www.w3.org/2000/svg" xmlns:xlink="http://www.w3.org/1999/xlink">
    <!-- Generator: Sketch 49.2 (51160) - http://www.bohemiancoding.com/sketch -->
    <title>choose</title>
    <desc>Created with Sketch.</desc>
    <defs></defs>
    <g id="choose" stroke="none" stroke-width="1" fill="none" fill-rule="evenodd">
        <path d="M18.2644356,155.730876 L23.6729505,155.730876 L25.0066733,164.440449 C40.2014851,186.069978 64.6134257,200.269753 92.3186139,200.269753 C119.998317,200.269753 144.418752,186.067146 159.616396,164.440449 L160.961446,155.730876 L166.358634,155.730876 C171.489644,155.730876 175.652218,151.565798 175.652218,146.443685 C175.652218,141.304584 171.486812,137.145169 166.358634,137.145169 L18.2644356,137.145169 C13.1362574,137.145169 8.98217822,141.304584 8.98217822,146.443685 C8.97934653,151.568629 13.1362574,155.730876 18.2644356,155.730876 Z" id="Shape" fill="#FFFFFF" fill-rule="nonzero"></path>
        <path d="M92.3157822,216.123101 C68.3172673,216.123101 46.4821584,207.30027 29.316495,192.783371 L39.6408119,260.446787 C39.6408119,260.446787 39.023505,274.074607 65.6611485,274.074607 C92.3129505,274.074607 92.3129505,274.074607 92.3129505,274.074607 C92.3129505,274.074607 92.3129505,274.074607 118.950594,274.074607 C145.599564,274.074607 144.973762,260.446787 144.973762,260.446787 L155.286752,192.783371 C138.157901,207.297438 116.322792,216.123101 92.3157822,216.123101 Z" id="Shape" fill="#FFFFFF" fill-rule="nonzero"></path>
        <path d="M18.377703,124.749034 C18.1879802,119.873258 19.4990495,111.565753 29.316495,105.540404 C43.9874455,96.5675056 56.6733861,110.501124 56.6733861,110.501124 C56.6733861,110.501124 62.8747723,86.3346067 92.3157822,86.3346067 C121.742634,86.3346067 123.914535,104.925978 123.914535,104.925978 C123.914535,104.925978 131.350535,94.6959101 148.694594,97.7963596 C166.041485,100.89964 163.566594,121.031326 163.566594,121.031326 L163.623228,124.749034 L173.466158,124.749034 L173.40103,122.24036 C174.870673,110.399191 169.963366,91.5275056 150.447406,88.0419775 C141.108515,86.4053933 133.414832,87.7701573 127.592891,90.276 C121.592554,82.9963146 110.650931,76.4216629 92.3214455,76.4216629 C72.1768515,76.4216629 59.7117822,86.1533933 52.9497228,95.7945169 C45.1116238,92.0654831 34.742,90.5846292 24.1373465,97.0941573 C11.4712277,104.863685 8.26859406,116.379236 8.42716832,124.749034 L18.377703,124.749034 Z" id="Shape" fill="#FFFFFF" fill-rule="nonzero"></path>
        <path d="M99.5932079,53.4924944 C91.9788119,53.4924944 85.8085743,47.3114157 85.8085743,39.7174382 C85.8085743,32.1177978 91.9788119,25.9282247 99.5932079,25.9282247 C107.196277,25.9282247 113.37501,32.1206292 113.37501,39.7174382 C113.37501,47.3114157 107.196277,53.4924944 99.5932079,53.4924944 Z M99.5932079,30.8889438 C94.7198812,30.8889438 90.7583564,34.8416629 90.7583564,39.7174382 C90.7583564,44.5818876 94.7198812,48.5459326 99.5932079,48.5459326 C104.452376,48.5459326 108.416733,44.5818876 108.416733,39.7174382 C108.416733,34.8388315 104.452376,30.8889438 99.5932079,30.8889438 Z" id="Shape" fill="#FFFFFF" fill-rule="nonzero"></path>
        <path d="M137.384851,75.6515056 C128.326297,75.6515056 120.969584,68.2812135 120.969584,59.2233708 C120.969584,50.1768539 128.326297,42.8093933 137.384851,42.8093933 C146.454733,42.8093933 153.814277,50.1768539 153.814277,59.2233708 C153.814277,68.2840449 146.454733,75.6515056 137.384851,75.6515056 Z M137.384851,48.7158202 C131.596891,48.7158202 126.870812,53.4358652 126.870812,59.2233708 C126.870812,65.0363596 131.596891,69.7365843 137.384851,69.7365843 C143.175644,69.7365843 147.901723,65.0363596 147.901723,59.2233708 C147.901723,53.4358652 143.175644,48.7158202 137.384851,48.7158202 Z" id="Shape" fill="#FFFFFF" fill-rule="nonzero"></path>
        <path d="M231.119228,151.24018 C231.119228,151.24018 227.067089,138.38818 219.282792,129.259551 C211.501327,120.12809 208.703624,82.1327191 208.703624,82.1327191 C208.703624,82.1327191 207.449188,76.164 202.723109,76.164 C197.999861,76.164 196.980455,81.9062022 196.980455,81.9062022 L207.449188,132.303371 C207.449188,132.303371 201.884931,143.960494 205.26596,156.138607 C205.268792,156.141438 224.413802,150.767326 231.119228,151.24018 Z" id="Shape" fill="#FFFFFF" fill-rule="nonzero"></path>
        <path d="M231.793168,160.034697 C231.793168,160.034697 248.287723,191.874472 288.12101,199.074876 C293.852337,200.116854 291.827683,205.176674 286.74198,206.196 C281.670436,207.212494 269.666931,208.390382 261.211525,201.977124 C261.211525,201.977124 267.412911,213.246337 282.409505,224.181438 C297.391941,235.113708 284.547426,237.817753 278.793446,232.067056 C273.04796,226.319191 258.512931,215.837124 258.512931,215.837124 C258.512931,215.837124 267.52901,239.44018 270.349366,243.908225 C276.094851,253.034022 271.490535,261.964449 266.518099,256.315685 C261.548495,250.672584 250.731465,222.261708 250.731465,222.261708 C250.731465,222.261708 263.417406,261.321708 260.02505,263.349034 C256.64402,265.37636 254.616535,265.382022 251.572475,259.631326 C248.525584,253.886292 241.684238,226.228584 241.684238,226.228584 C241.684238,226.228584 242.389327,253.988225 241.259485,257.773888 C239.401901,264.031416 234.160455,260.140989 234.842891,257.425618 C236.499426,250.783011 233.319446,228.179461 233.319446,228.179461 C233.319446,228.179461 231.461861,257.773888 225.716376,264.87236 C215.72903,277.194876 214.134792,265.82373 217.416713,260.644989 C224.62901,249.262517 226.778257,227.055371 226.778257,227.055371 C226.778257,227.055371 217.082574,254.563011 206.421287,260.480764 C202.009525,262.93564 197.71103,258.391146 201.361069,255.412449 C208.808396,249.321978 217.76501,226.132315 217.76501,226.132315 C217.76501,226.132315 202.190752,244.516989 194.596178,248.982202 C190.476079,251.394607 185.662218,245.881753 189.524634,243.905393 C196.456594,240.349079 211.43903,219.484045 211.43903,219.484045 C211.43903,219.484045 192.381802,236.421843 184.934475,240.374562 C179.885584,243.053124 174.610158,239.298607 179.715683,235.453483 C190.722436,227.143146 204.226733,213.302966 204.226733,213.302966 C204.226733,213.302966 185.962376,227.112 178.786891,229.422472 C170.096455,232.228449 166.344475,228.202112 183.94905,218.037169 C194.584851,211.892899 198.571861,203.282427 198.571861,203.282427 C198.571861,203.282427 185.71602,213.79564 172.616653,217.184899 C168.046317,218.374112 161.629723,216.012674 162.649129,212.966022 C163.645881,209.919371 173.330238,209.49182 175.660713,208.398876 C194.080812,199.777079 196.555703,190.336989 200.854198,181.522652 C202.847703,177.425528 207.035762,164.366831 207.035762,164.366831 L231.793168,160.034697 Z" id="Shape" fill="#FFFFFF" fill-rule="nonzero"></path>
    </g>
</svg>