<?xml version="1.0" encoding="UTF-8"?>
<svg width="300px" height="300px" viewBox="0 0 300 300" version="1.1" xmlns="http://www.w3.org/2000/svg" xmlns:xlink="http://www.w3.org/1999/xlink">
    <!-- Generator: Sketch 49.2 (51160) - http://www.bohemiancoding.com/sketch -->
    <title>clean</title>
    <desc>Created with Sketch.</desc>
    <defs></defs>
    <g id="clean" stroke="none" stroke-width="1" fill="none" fill-rule="evenodd">
        <g id="Group-2" transform="translate(46.000000, 26.000000)" fill="#DEDEDE" fill-rule="nonzero">
            <path d="M69.7832512,95.4026495 L23.2315271,95.4026495 L23.2315271,109.242874 L69.7832512,109.242874 L69.7832512,95.4026495 Z M74.4827586,117.671216 C75.2807882,118.64713 75.9901478,119.534324 76.7881773,120.510237 C84.679803,130.26937 93.0147783,140.649538 93.0147783,159.103171 L93.0147783,243.741469 C93.0147783,246.048173 91.1527094,248 88.7586207,248 L4.25615764,248 C1.86206897,248 0,246.048173 0,243.741469 L0,159.103171 C0,140.117222 9.66502463,128.76114 18.4433498,118.380971 L18.9753695,117.671216 C16.6699507,117.671216 14.8078818,115.808109 14.8078818,113.501405 L14.8078818,91.1441188 C14.8078818,88.8374147 16.6699507,86.8855881 19.0640394,86.8855881 L30.8571429,86.8855881 L30.8571429,73.5776796 L4.25615764,73.5776796 C1.86206897,73.5776796 0,71.7145725 0,69.3191489 C0,68.2545163 0.443349754,67.1898836 1.15270936,66.3914091 L31.8325123,28.596949 C32.7192118,27.6210357 33.8719212,27.0887194 35.1133005,27.0887194 L96.2955665,27 L96.3842365,27 L121.743842,27 C124.137931,27 126,28.9518266 126,31.2585307 L126,56.6322762 C126,59.0276997 124.137931,60.8908069 121.743842,60.8908069 L100.729064,60.8908069 C101.172414,67.278603 103.123153,73.0453633 105.960591,78.2798073 C109.596059,84.9337615 114.650246,90.96668 120.236453,96.8221598 C121.832512,98.5078282 121.743842,101.16941 120.059113,102.766359 C119.261084,103.564833 118.197044,103.919711 117.133005,103.919711 C104.364532,103.919711 94.0788177,98.3303894 85.7438424,89.6358892 C80.3349754,83.8691289 75.8128079,76.7715777 72,69.1417102 L67.0344828,86.8855881 L73.9507389,86.8855881 C76.3448276,86.8855881 78.2068966,88.8374147 78.2068966,91.1441188 L78.2068966,113.501405 C78.2068966,115.63067 76.6108374,117.405058 74.4827586,117.671216 Z M29.8817734,117.671216 C28.2857143,119.800482 26.6009852,121.752308 24.8275862,123.792854 C17.0246305,133.019671 8.42364532,143.222401 8.42364532,159.103171 L8.42364532,239.482939 L84.591133,239.482939 L84.591133,159.103171 C84.591133,143.665998 77.1428571,134.439181 70.226601,125.744681 C68.0985222,123.171819 65.9704433,120.510237 64.0197044,117.671216 L29.8817734,117.671216 Z M39.3694581,86.8855881 L58.2561576,86.8855881 L66.8571429,55.8338017 C67.3004926,53.8819751 68.9852217,52.4624649 71.0246305,52.4624649 L92.2167488,52.4624649 L92.2167488,35.5170614 L37.1527094,35.5170614 L13.1231527,65.1493376 L35.1133005,65.1493376 C37.4187192,65.1493376 39.3694581,67.0124448 39.3694581,69.3191489 L39.3694581,86.8855881 Z M77.408867,60.8908069 C81.3103448,69.5853071 86.0098522,77.6587716 91.862069,83.7804095 C96.0295567,88.1276596 100.729064,91.5877158 106.137931,93.5395424 C103.300493,89.9907668 100.729064,86.2645524 98.6009852,82.2721798 C95.0541872,75.8843838 92.7487685,68.7868326 92.3054187,60.8908069 L77.408867,60.8908069 Z M100.640394,35.5170614 L100.640394,52.4624649 L117.576355,52.4624649 L117.576355,35.5170614 L100.640394,35.5170614 Z" id="Shape"></path>
            <path d="M144,42.0002268 C144.000142,45.3138502 146.68639,47.9999982 149.999998,48 C153.313607,48.0000008 155.999858,45.313852 156,42.0002268 C156.000052,40.4088856 155.367934,38.8827037 154.24271,37.7574372 C153.117485,36.6321707 151.591331,35.9999996 149.999998,36 C148.408665,36.0000008 146.882512,36.6321724 145.757289,37.7574388 C144.632065,38.8827052 143.999948,40.4088864 144,42.0002268 Z" id="Shape" transform="translate(150.000000, 42.000000) rotate(180.000000) translate(-150.000000, -42.000000) "></path>
            <path d="M168,57.0002268 C168.000142,60.313852 170.686393,63.0000008 174.000002,63 C177.31361,62.9999982 179.999858,60.3138502 180,57.0002268 C180.000052,55.4088864 179.367935,53.8827052 178.242711,52.7574388 C177.117488,51.6321724 175.591335,51.0000008 174.000002,51 C172.408669,50.9999996 170.882515,51.6321707 169.75729,52.7574372 C168.632066,53.8827037 167.999948,55.4088856 168,57.0002268 Z" id="Shape" transform="translate(174.000000, 57.000000) rotate(180.000000) translate(-174.000000, -57.000000) "></path>
            <path d="M169.75729,25.2425628 C170.882515,26.3678293 172.408669,27.0000004 174.000002,27 C175.591335,26.9999992 177.117488,26.3678276 178.242711,25.2425612 C179.367935,24.1172948 180.000052,22.5911136 180,20.9997732 C179.999858,17.6861498 177.31361,15.0000018 174.000002,15 C170.686393,14.9999992 168.000142,17.686148 168,20.9997732 C167.999948,22.5911144 168.632066,24.1172963 169.75729,25.2425628 Z" id="Shape" transform="translate(174.000000, 21.000000) rotate(180.000000) translate(-174.000000, -21.000000) "></path>
            <path d="M196,42.0002268 C196.000142,45.3138502 198.68639,47.9999982 201.999998,48 C205.313607,48.0000008 207.999858,45.313852 208,42.0002268 C208.000052,40.4088856 207.367934,38.8827037 206.24271,37.7574372 C205.117485,36.6321707 203.591331,35.9999996 201.999998,36 C200.408665,36.0000008 198.882512,36.6321724 197.757289,37.7574388 C196.632065,38.8827052 195.999948,40.4088864 196,42.0002268 Z" id="Shape" transform="translate(202.000000, 42.000000) rotate(180.000000) translate(-202.000000, -42.000000) "></path>
            <path d="M196,76.9997732 C195.999948,78.5911136 196.632065,80.1172948 197.757289,81.2425612 C198.882512,82.3678276 200.408665,82.9999992 201.999998,83 C203.591331,83.0000004 205.117485,82.3678293 206.24271,81.2425628 C207.367934,80.1172963 208.000052,78.5911144 208,76.9997732 C207.999858,73.686148 205.313607,70.9999992 201.999998,71 C198.68639,71.0000018 196.000142,73.6861498 196,76.9997732 Z" id="Shape" transform="translate(202.000000, 77.000000) rotate(180.000000) translate(-202.000000, -77.000000) "></path>
            <path d="M197.757289,10.2426276 C198.882512,11.3678514 200.408665,11.9999992 201.999998,12 C203.591331,12.0000004 205.117485,11.3678532 206.24271,10.2426292 C207.367934,9.11740522 208.000052,7.59128103 208,6 C208.000052,4.40871897 207.367934,2.88259478 206.24271,1.7573708 C205.117485,0.632146817 203.591331,-3.61717489e-07 201.999998,0 C200.408665,8.41140813e-07 198.882512,0.632148551 197.757289,1.7573724 C196.632065,2.88259625 195.999948,4.40871975 196,6 C195.999948,7.59128025 196.632065,9.11740375 197.757289,10.2426276 Z" id="Shape" transform="translate(202.000000, 6.000000) rotate(180.000000) translate(-202.000000, -6.000000) "></path>
        </g>
    </g>
</svg>