<?xml version="1.0" encoding="UTF-8"?>
<svg width="300px" height="300px" viewBox="0 0 300 300" version="1.1" xmlns="http://www.w3.org/2000/svg" xmlns:xlink="http://www.w3.org/1999/xlink">
    <!-- Generator: Sketch 49.2 (51160) - http://www.bohemiancoding.com/sketch -->
    <title>creditcard</title>
    <desc>Created with Sketch.</desc>
    <defs></defs>
    <g id="creditcard" stroke="none" stroke-width="1" fill="none" fill-rule="evenodd">
        <path d="M19.8653031,98.2125047 L233.046747,49.9650822 L230.092579,36.9612325 C229.271792,33.2598154 225.530543,30.9343731 221.85433,31.7530887 L22.0641951,76.6600359 C18.3552263,77.4790358 16.0248375,81.1804529 16.8451496,84.8815857 C17.8624694,89.3032755 18.8475085,93.790815 19.8653031,98.2125047 Z M18.0927075,64.8683881 L220.410239,19.4374872 C230.059824,17.2758638 239.676653,23.3352217 241.843264,32.9652919 L263.046527,126.480081 L250.377263,126.480081 L240.759959,84.1282461 L27.5780403,132.375904 L40.7728165,190.449997 L41.9543887,195.592765 C42.4139154,197.656467 44.4817853,198.99909 46.5824108,198.507728 L48.1575238,198.147592 L48.1575238,210.528854 L47.9277605,210.597214 C39.9192743,212.398701 31.9435435,207.321831 30.1054369,199.362543 L4.47115986,86.2929014 C3.38785424,81.4777241 4.1758855,76.9578756 6.80154865,72.7653334 C9.42721205,68.5725543 13.2676776,65.9520659 18.0922328,64.8711358 L18.0927075,64.8683881 Z M70.6083462,129.853623 C60.7289978,129.853623 52.6872813,137.911638 52.6872813,147.770856 L52.6872813,264.115881 C52.6872813,273.974815 60.7289978,282 70.6083462,282 L278.046654,282 C287.926003,282 296,273.942269 296,264.115881 L296,147.770856 C296,137.911638 287.926003,129.853623 278.046654,129.853623 L70.6083462,129.853623 Z M273.681151,181.933971 C273.681151,174.040012 273.681151,166.146384 273.681151,158.252141 C273.681151,156.712631 272.466349,155.500997 270.923991,155.500997 C253.23269,155.500997 235.541388,155.500997 217.850086,155.500997 C216.34001,155.500997 215.092926,156.745462 215.092926,158.252141 C215.092926,166.146384 215.092926,174.040012 215.092926,181.933971 C215.092926,183.440935 216.34001,184.6854 217.850086,184.6854 C235.541388,184.6854 253.23269,184.6854 270.923991,184.6854 C272.400838,184.6854 273.681151,183.473481 273.681151,181.933971 Z M234.556824,253.732471 C233.013991,253.732471 231.766433,252.487722 231.766433,250.980995 L231.766433,245.478376 C231.766433,243.971412 233.013991,242.726663 234.556824,242.726663 L270.890761,242.726663 C272.400838,242.726663 273.647921,243.971412 273.647921,245.478376 L273.647921,250.980995 C273.647921,252.487722 272.400838,253.732471 270.890761,253.732471 L234.556824,253.732471 Z M183.846063,253.732471 C182.335987,253.732471 181.088903,252.487722 181.088903,250.980995 L181.088903,245.510921 C181.088903,243.971412 182.335987,242.759777 183.846063,242.759777 L220.213231,242.759777 C221.722833,242.759777 222.970391,244.004242 222.970391,245.510921 L222.970391,250.980995 C222.970391,252.487722 221.722833,253.732471 220.213231,253.732471 L183.846063,253.732471 Z M133.167584,253.732471 C131.657982,253.732471 130.410898,252.487722 130.410898,250.980995 L130.410898,245.510921 C130.410898,243.971412 131.657982,242.759777 133.167584,242.759777 L169.535701,242.759777 C171.044828,242.759777 172.292386,244.004242 172.292386,245.510921 L172.292386,250.980995 C172.292386,252.487722 171.044828,253.732471 169.535701,253.732471 L133.167584,253.732471 Z M82.4900535,253.732471 C80.9804515,253.732471 79.7328936,252.487722 79.7328936,250.980995 L79.7328936,245.510921 C79.7328936,243.971412 80.9804515,242.759777 82.4900535,242.759777 L118.857696,242.759777 C120.367298,242.759777 121.614381,244.004242 121.614381,245.510921 L121.614381,250.980995 C121.614381,252.487722 120.367298,253.732471 118.857696,253.732471 L82.4900535,253.732471 Z" id="Shape" fill="#FFFFFF"></path>
    </g>
</svg>