<?xml version="1.0" encoding="UTF-8"?>
<svg width="300px" height="300px" viewBox="0 0 300 300" version="1.1" xmlns="http://www.w3.org/2000/svg" xmlns:xlink="http://www.w3.org/1999/xlink">
    <!-- Generator: Sketch 49.2 (51160) - http://www.bohemiancoding.com/sketch -->
    <title>fridge</title>
    <desc>Created with Sketch.</desc>
    <defs></defs>
    <g id="fridge" stroke="none" stroke-width="1" fill="none" fill-rule="evenodd">
        <path d="M94.1666667,131.2 C96.7626944,131.2 98.8611111,133.3009 98.8611111,135.9 C98.8611111,138.4991 96.7626944,140.6 94.1666667,140.6 C91.5706389,140.6 89.4722222,138.4991 89.4722222,135.9 C89.4722222,133.3009 91.5706389,131.2 94.1666667,131.2 Z M103.555556,145.3 C106.151583,145.3 108.25,147.4009 108.25,150 C108.25,152.5991 106.151583,154.7 103.555556,154.7 C100.959528,154.7 98.8611111,152.5991 98.8611111,150 C98.8611111,147.4009 100.959528,145.3 103.555556,145.3 Z M112.944444,131.2 C115.540472,131.2 117.638889,133.3009 117.638889,135.9 C117.638889,138.4991 115.540472,140.6 112.944444,140.6 C110.348417,140.6 108.25,138.4991 108.25,135.9 C108.25,133.3009 110.348417,131.2 112.944444,131.2 Z M122.333333,145.3 C124.929361,145.3 127.027778,147.4009 127.027778,150 C127.027778,152.5991 124.929361,154.7 122.333333,154.7 C119.737306,154.7 117.638889,152.5991 117.638889,150 C117.638889,147.4009 119.737306,145.3 122.333333,145.3 Z M131.722222,131.2 C134.31825,131.2 136.416667,133.3009 136.416667,135.9 C136.416667,138.4991 134.31825,140.6 131.722222,140.6 C129.126194,140.6 127.027778,138.4991 127.027778,135.9 C127.027778,133.3009 129.126194,131.2 131.722222,131.2 Z M141.111111,145.3 C143.707139,145.3 145.805556,147.4009 145.805556,150 C145.805556,152.5991 143.707139,154.7 141.111111,154.7 C138.515083,154.7 136.416667,152.5991 136.416667,150 C136.416667,147.4009 138.515083,145.3 141.111111,145.3 Z M150.5,131.2 C153.096028,131.2 155.194444,133.3009 155.194444,135.9 C155.194444,138.4991 153.096028,140.6 150.5,140.6 C147.903972,140.6 145.805556,138.4991 145.805556,135.9 C145.805556,133.3009 147.903972,131.2 150.5,131.2 Z M159.888889,145.3 C162.484917,145.3 164.583333,147.4009 164.583333,150 C164.583333,152.5991 162.484917,154.7 159.888889,154.7 C157.292861,154.7 155.194444,152.5991 155.194444,150 C155.194444,147.4009 157.292861,145.3 159.888889,145.3 Z M169.277778,159.4 C171.873806,159.4 173.972222,161.5009 173.972222,164.1 C173.972222,166.6991 171.873806,168.8 169.277778,168.8 C166.68175,168.8 164.583333,166.6991 164.583333,164.1 C164.583333,161.5009 166.68175,159.4 169.277778,159.4 Z M197.444444,140.6 C197.444444,138.0009 199.542861,135.9 202.138889,135.9 L202.138889,131.2 C202.138889,128.6009 204.237306,126.5 206.833333,126.5 C209.429361,126.5 211.527778,128.6009 211.527778,131.2 L211.527778,135.9 C214.123806,135.9 216.222222,138.0009 216.222222,140.6 C216.222222,143.1991 214.123806,145.3 211.527778,145.3 L211.527778,220.5 C214.123806,220.5 216.222222,222.6009 216.222222,225.2 C216.222222,227.7991 214.123806,229.9 211.527778,229.9 L211.527778,234.6 C211.527778,237.1991 209.429361,239.3 206.833333,239.3 C204.237306,239.3 202.138889,237.1991 202.138889,234.6 L202.138889,229.9 C199.542861,229.9 197.444444,227.7991 197.444444,225.2 C197.444444,222.6009 199.542861,220.5 202.138889,220.5 L202.138889,145.3 C199.542861,145.3 197.444444,143.1991 197.444444,140.6 Z M145.805556,164.1 C145.805556,161.5009 147.903972,159.4 150.5,159.4 C153.096028,159.4 155.194444,161.5009 155.194444,164.1 C155.194444,166.6991 153.096028,168.8 150.5,168.8 C147.903972,168.8 145.805556,166.6991 145.805556,164.1 Z M127.027778,164.1 C127.027778,161.5009 129.126194,159.4 131.722222,159.4 C134.31825,159.4 136.416667,161.5009 136.416667,164.1 C136.416667,166.6991 134.31825,168.8 131.722222,168.8 C129.126194,168.8 127.027778,166.6991 127.027778,164.1 Z M108.25,164.1 C108.25,161.5009 110.348417,159.4 112.944444,159.4 C115.540472,159.4 117.638889,161.5009 117.638889,164.1 C117.638889,166.6991 115.540472,168.8 112.944444,168.8 C110.348417,168.8 108.25,166.6991 108.25,164.1 Z M84.7777778,281.6 L216.222222,281.6 L216.222222,276.9 L84.7777778,276.9 L84.7777778,281.6 Z M66,262.8 C66,268.9194 69.9386389,274.0847 75.3888889,276.0305 L75.3888889,286.3 C75.3888889,288.8991 77.4873056,291 80.0833333,291 L220.916667,291 C223.512694,291 225.611111,288.8991 225.611111,286.3 L225.611111,276.0305 C231.061361,274.0847 235,268.9194 235,262.8 L235,117.1 L66,117.1 L66,262.8 Z" id="Shape" fill="#DEDEDE" fill-rule="nonzero"></path>
        <path d="M216.222222,84.2 C216.222222,86.7991 214.123806,88.9 211.527778,88.9 L211.527778,93.6 C211.527778,96.1991 209.429361,98.3 206.833333,98.3 C204.237306,98.3 202.138889,96.1991 202.138889,93.6 L202.138889,88.9 C199.542861,88.9 197.444444,86.7991 197.444444,84.2 C197.444444,81.6009 199.542861,79.5 202.138889,79.5 L202.138889,56 C199.542861,56 197.444444,53.8991 197.444444,51.3 C197.444444,48.7009 199.542861,46.6 202.138889,46.6 L202.138889,41.9 C202.138889,39.3009 204.237306,37.2 206.833333,37.2 C209.429361,37.2 211.527778,39.3009 211.527778,41.9 L211.527778,46.6 C214.123806,46.6 216.222222,48.7009 216.222222,51.3 C216.222222,53.8991 214.123806,56 211.527778,56 L211.527778,79.5 C214.123806,79.5 216.222222,81.6009 216.222222,84.2 M220.916667,9 L80.0833333,9 C72.3187222,9 66,15.3262 66,23.1 L66,107.7 L235,107.7 L235,23.1 C235,15.3262 228.681278,9 220.916667,9" id="Shape" fill="#DEDEDE" fill-rule="nonzero"></path>
    </g>
</svg>