<?xml version="1.0" encoding="UTF-8"?>
<svg width="300px" height="300px" viewBox="0 0 300 300" version="1.1" xmlns="http://www.w3.org/2000/svg" xmlns:xlink="http://www.w3.org/1999/xlink">
    <!-- Generator: Sketch 49.2 (51160) - http://www.bohemiancoding.com/sketch -->
    <title>move out</title>
    <desc>Created with Sketch.</desc>
    <defs></defs>
    <g id="move-out" stroke="none" stroke-width="1" fill="none" fill-rule="evenodd">
        <g id="Group-3" transform="translate(2.000000, 58.000000)" fill="#DEDEDE" fill-rule="nonzero">
            <path d="M185,148 L198.875,148 C201.432625,148 203.5,145.932625 203.5,143.375 C203.5,140.817375 201.432625,138.75 198.875,138.75 L185,138.75 C182.442375,138.75 180.375,140.817375 180.375,143.375 C180.375,145.932625 182.442375,148 185,148 Z M291.375,0 L120.25,0 C107.3555,0 95.8485,8.22325 93.115125,18.5 L87.875,18.5 C84.38775,18.5 79.74425,19.906 76.835125,21.843875 L56.781125,35.21475 C53.358625,37.49025 50.875,42.13375 50.875,46.25 L50.875,48.96025 L26.394875,73.440375 C21.89475,77.9405 18.5,85.141625 18.5,90.1875 L18.5,94.8125 L1.85,107.3 C0.6845,108.174125 0,109.54775 0,111 L0,161.875 C0,164.432625 2.072,166.5 4.625,166.5 L32.842125,166.5 C34.99275,177.040375 44.330625,185 55.5,185 C66.669375,185 76.00725,177.040375 78.157875,166.5 L217.84675,166.5 C219.99275,177.040375 229.33525,185 240.5,185 C251.66475,185 261.011875,177.040375 263.15325,166.5 L291.375,166.5 C293.932625,166.5 296,164.432625 296,161.875 L296,4.625 C296,2.072 293.932625,0 291.375,0 Z M27.75,90.1875 C27.75,87.86575 30.01625,82.8985 32.934625,79.980125 L57.41475,55.5 L74,55.5 L74,92.5 L27.75,92.5 L27.75,90.1875 Z M9.25,124.875 L24.89175,124.875 L21.057625,132.54325 C20.696875,133.26475 19.309375,134.125 18.5,134.125 L9.25,134.125 L9.25,124.875 Z M55.5,175.75 C47.85025,175.75 41.625,169.52475 41.625,161.875 C41.625,154.22525 47.85025,148 55.5,148 C63.14975,148 69.375,154.22525 69.375,161.875 C69.375,169.52475 63.14975,175.75 55.5,175.75 Z M92.5,157.25 L78.157875,157.25 C78.157875,157.245375 78.157875,157.24075 78.15325,157.236125 C78.139375,157.152875 78.09775,157.078875 78.083875,156.995625 C77.7925,155.663625 77.390125,154.377875 76.886,153.138375 C76.705625,152.699 76.465125,152.296625 76.257,151.87575 C75.845375,151.02475 75.419875,150.196875 74.91575,149.410625 C74.61975,148.948125 74.28675,148.531875 73.958375,148.097125 C73.445,147.408 72.9085,146.737375 72.321125,146.108375 C71.93725,145.69675 71.53025,145.312875 71.114,144.929 C70.49425,144.3555 69.84675,143.823625 69.16225,143.3195 C68.709,142.981875 68.25575,142.6535 67.77475,142.352875 C67.039375,141.88575 66.27625,141.488 65.49,141.10875 C64.99975,140.86825 64.51875,140.623125 64.01,140.419625 C63.122,140.068125 62.197,139.8045 61.26275,139.559375 C60.80025,139.44375 60.3655,139.27725 59.89375,139.189375 C58.46925,138.9165 57.003125,138.75 55.5,138.75 C53.996875,138.75 52.53075,138.9165 51.10625,139.194 C50.6345,139.2865 50.19975,139.448375 49.73725,139.564 C48.798375,139.809125 47.878,140.068125 46.99,140.42425 C46.48125,140.62775 46.00025,140.8775 45.51,141.113375 C44.728375,141.492625 43.960625,141.890375 43.22525,142.3575 C42.74425,142.658125 42.291,142.9865 41.83775,143.324125 C41.157875,143.823625 40.50575,144.360125 39.886,144.933625 C39.46975,145.3175 39.067375,145.701375 38.678875,146.113 C38.0915,146.742 37.555,147.408 37.041625,148.10175 C36.71325,148.5365 36.38025,148.957375 36.08425,149.41525 C35.580125,150.2015 35.154625,151.034 34.743,151.880375 C34.5395,152.305875 34.294375,152.70825 34.114,153.143 C33.609875,154.3825 33.202875,155.66825 32.916125,157.00025 C32.90225,157.0835 32.860625,157.1575 32.84675,157.24075 C32.84675,157.245375 32.842125,157.25 32.842125,157.254625 L9.25,157.254625 L9.25,143.379625 L18.5,143.379625 C22.83825,143.379625 27.38925,140.567625 29.33175,136.68725 L36.514375,122.326625 C37.23125,120.892875 37.152625,119.190875 36.310875,117.8265 C35.469125,116.462125 33.979875,115.625 32.375,115.625 L9.25,115.625 L9.25,113.3125 L24.665125,101.75 L92.5,101.75 L92.5,157.25 Z M92.5,92.5 L83.25,92.5 L83.25,55.5 L92.5,55.5 L92.5,92.5 Z M92.5,46.25 L60.125,46.25 C60.125,45.246375 61.07775,43.46575 61.914875,42.906125 L81.968875,29.53525 C83.324,28.633375 86.247,27.75 87.875,27.75 L92.5,27.75 L92.5,46.25 Z M240.5,175.75 C232.85025,175.75 226.625,169.52475 226.625,161.875 C226.625,154.22525 232.85025,148 240.5,148 C248.14975,148 254.375,154.22525 254.375,161.875 C254.375,169.52475 248.14975,175.75 240.5,175.75 Z M286.75,157.25 L263.157875,157.25 C263.157875,157.245375 263.15325,157.24075 263.15325,157.236125 C263.13475,157.152875 263.09775,157.078875 263.07925,156.991 C262.787875,155.663625 262.390125,154.377875 261.881375,153.143 C261.701,152.699 261.455875,152.292 261.243125,151.861875 C260.836125,151.020125 260.41525,150.19225 259.911125,149.410625 C259.61975,148.948125 259.2775,148.531875 258.949125,148.0925 C258.43575,147.408 257.89925,146.737375 257.311875,146.108375 C256.928,145.69675 256.521,145.312875 256.10475,144.929 C255.480375,144.3555 254.8375,143.823625 254.153,143.314875 C253.695125,142.981875 253.2465,142.6535 252.7655,142.352875 C252.030125,141.88575 251.262375,141.488 250.476125,141.10875 C249.985875,140.86825 249.5095,140.623125 249.005375,140.419625 C248.117375,140.068125 247.183125,139.8045 246.248875,139.559375 C245.786375,139.44375 245.351625,139.27725 244.8845,139.189375 C243.46925,138.9165 242.003125,138.75 240.5,138.75 C238.996875,138.75 237.53075,138.9165 236.10625,139.194 C235.639125,139.2865 235.204375,139.448375 234.741875,139.564 C233.807625,139.809125 232.878,140.068125 231.985375,140.42425 C231.48125,140.62775 231.004875,140.8775 230.514625,141.113375 C229.728375,141.492625 228.960625,141.890375 228.22525,142.3575 C227.74425,142.658125 227.295625,142.9865 226.83775,143.3195 C226.157875,143.823625 225.510375,144.360125 224.886,144.933625 C224.46975,145.3175 224.06275,145.701375 223.678875,146.113 C223.0915,146.742 222.559625,147.408 222.041625,148.097125 C221.71325,148.5365 221.371,148.957375 221.079625,149.41525 C220.5755,150.196875 220.154625,151.029375 219.747625,151.8665 C219.534875,152.30125 219.28975,152.70825 219.109375,153.147625 C218.60525,154.3825 218.202875,155.66825 217.9115,156.995625 C217.893,157.0835 217.856,157.1575 217.8375,157.24075 C217.8375,157.245375 217.832875,157.25 217.832875,157.254625 L101.75,157.254625 L101.75,148.004625 L161.875,148.004625 C164.432625,148.004625 166.5,145.93725 166.5,143.379625 C166.5,140.822 164.432625,138.754625 161.875,138.754625 L101.75,138.754625 L101.75,129.504625 L286.75,129.504625 L286.75,157.25 Z M286.75,120.25 L101.75,120.25 L101.75,23.125 C101.75,16.710125 109.829875,9.25 120.25,9.25 L286.75,9.25 L286.75,120.25 Z" id="Shape" transform="translate(148.000000, 92.500000) scale(-1, 1) translate(-148.000000, -92.500000) "></path>
        </g>
    </g>
</svg>