<?xml version="1.0" encoding="UTF-8"?>
<svg width="300px" height="300px" viewBox="0 0 300 300" version="1.1" xmlns="http://www.w3.org/2000/svg" xmlns:xlink="http://www.w3.org/1999/xlink">
    <!-- Generator: Sketch 49.2 (51160) - http://www.bohemiancoding.com/sketch -->
    <title>move in</title>
    <desc>Created with Sketch.</desc>
    <defs></defs>
    <g id="move-in" stroke="none" stroke-width="1" fill="none" fill-rule="evenodd">
        <g id="Group" transform="translate(2.000000, 40.000000)" fill="#DEDEDE" fill-rule="nonzero">
            <path d="M147.5,220 C143.912,220 141,217.101176 141,213.529412 L141,6.47058824 C141,2.89882353 143.912,0 147.5,0 C151.088,0 154,2.89882353 154,6.47058824 L154,213.529412 C154,217.101176 151.088,220 147.5,220 Z" id="Shape"></path>
            <path d="M147.55557,218 C146.795125,218 146.034681,217.870833 145.287125,217.586667 L42.1760005,178.836667 C39.6626669,177.89375 38,175.478333 38,172.791667 L38,69.4583333 C38,65.8933333 40.8871115,63 44.4444453,63 C48.0017791,63 50.8888906,65.8933333 50.8888906,69.4583333 L50.8888906,168.309583 L149.824015,205.48375 C153.149348,206.736667 154.837793,210.456667 153.587571,213.802083 C152.620904,216.398333 150.159126,218 147.55557,218 Z" id="Shape"></path>
            <path d="M6.46087916,77 C4.17479611,77 2.04370175,75.7935951 0.86837092,73.8043105 C-0.423201422,71.5840122 -0.268212741,68.7861796 1.29458979,66.7327245 L40.04176,15.3963469 C41.0879336,13.9974306 42.6636519,13.0862099 44.4072746,12.8808644 L147.733062,0.046769992 C150.367869,-0.261248273 152.821857,0.970824789 154.126345,3.19112312 C155.430833,5.41142145 155.262929,8.20925403 153.700126,10.2627091 L114.952956,61.5990867 C113.906782,62.998003 112.331064,63.9092237 110.587441,64.1145692 L7.26165401,76.9486636 C6.99042382,76.9871659 6.73210935,77 6.46087916,77 Z M48.7211262,25.2785996 L20.7456693,62.3434642 L106.27359,51.716834 L134.249047,14.6519694 L48.7211262,25.2785996 Z" id="Shape"></path>
            <path d="M147.5,220 C143.912,220 141,217.101176 141,213.529412 L141,6.47058824 C141,2.89882353 143.912,0 147.5,0 C151.088,0 154,2.89882353 154,6.47058824 L154,213.529412 C154,217.101176 151.088,220 147.5,220 Z" id="Shape"></path>
            <path d="M147.44443,218 C144.840874,218 142.379096,216.398333 141.412429,213.815 C140.162207,210.469583 141.850652,206.749583 145.175985,205.496667 L244.111109,168.3225 L244.111109,69.4583333 C244.111109,65.8933333 246.998221,63 250.555555,63 C254.112889,63 257,65.8933333 257,69.4583333 L257,172.791667 C257,175.478333 255.337333,177.89375 252.823999,178.836667 L149.712875,217.586667 C148.965319,217.870833 148.204875,218 147.44443,218 Z" id="Shape"></path>
            <path d="M289.538901,77 C289.267661,77 289.009338,76.9871665 288.738098,76.948666 L185.408788,64.1151674 C183.665106,63.8969979 182.089334,62.998653 181.043125,61.5998017 L142.294634,10.2658072 C140.731778,8.21244746 140.576784,5.42757826 141.868401,3.1945495 C143.160017,0.961520742 145.63992,-0.270495124 148.261902,0.0503423411 L251.591212,12.883841 C253.334894,13.1020104 254.910666,14.0003553 255.956875,15.3992067 L294.705366,66.7332011 C296.268222,68.7865609 296.423216,71.5714301 295.131599,73.8044588 C293.956229,75.7936511 291.825062,77 289.538901,77 Z M189.722787,51.7180077 L275.240707,62.3441446 L247.277213,25.2810006 L161.759293,14.6548638 L189.722787,51.7180077 Z" id="Shape"></path>
            <path d="M109.5,180 C105.912,180 103,177.088 103,173.5 L103,134.5 C103,130.912 105.912,128 109.5,128 C113.088,128 116,130.912 116,134.5 L116,173.5 C116,177.088 113.088,180 109.5,180 Z" id="Shape"></path>
            <path d="M128.495937,160 C126.831729,160 125.167521,159.372863 123.893362,158.131387 L108.993499,143.451255 L94.0936367,158.118588 C91.5583198,160.614339 87.4368046,160.614339 84.9014877,158.118588 C82.3661708,155.622838 82.3661708,151.565643 84.9014877,149.069893 L104.403925,129.871813 C106.939242,127.376062 111.060758,127.376062 113.596075,129.871813 L133.098512,149.069893 C135.633829,151.565643 135.633829,155.622838 133.098512,158.118588 C131.824353,159.372863 130.160145,160 128.495937,160 Z" id="Shape"></path>
            <path d="M174.427578,180 C171.882724,180 169.466398,178.512568 168.46388,176.07518 C167.140042,172.875327 168.746641,169.237994 172.04981,167.950553 L204.181802,155.451126 C207.459265,154.163685 211.212282,155.726113 212.53612,158.938466 C213.859958,162.138319 212.253359,165.775652 208.95019,167.063093 L176.818198,179.56252 C176.034177,179.862506 175.224451,180 174.427578,180 Z" id="Shape"></path>
        </g>
    </g>
</svg>