<?xml version="1.0" encoding="UTF-8"?>
<svg width="300px" height="300px" viewBox="0 0 300 300" version="1.1" xmlns="http://www.w3.org/2000/svg" xmlns:xlink="http://www.w3.org/1999/xlink">
    <!-- Generator: Sketch 49.2 (51160) - http://www.bohemiancoding.com/sketch -->
    <title>oven</title>
    <desc>Created with Sketch.</desc>
    <defs></defs>
    <g id="oven" stroke="none" stroke-width="1" fill="none" fill-rule="evenodd">
        <g id="Group" transform="translate(9.000000, 20.000000)" fill="#DEDEDE" fill-rule="nonzero">
            <path d="M27,234 L256,234 L256,105 L27,105 L27,234 Z M50.7130178,117.866142 L71.3772189,137.503937 L95.4289941,115.834646 L118.12574,137.503937 L141.5,115.834646 L164.87426,137.503937 L188.248521,115.834646 L214.33284,137.503937 L235.335799,117.866142 L240.078402,122.944882 L214.33284,146.645669 L188.587278,124.976378 L164.87426,146.645669 L141.5,124.976378 L118.12574,146.984252 L95.0902367,124.976378 L71.3772189,146.645669 L46.3091716,122.944882 L50.7130178,117.866142 Z" id="Shape"></path>
            <rect id="Rectangle-path" x="116" y="21" width="52" height="8"></rect>
            <circle id="Oval" cx="194" cy="25" r="4"></circle>
            <circle id="Oval" cx="225" cy="25" r="4"></circle>
            <path d="M0,260 L283,260 L283,58 L0,58 L0,260 Z M20.0444178,74.2684564 L263.635054,74.2684564 L263.635054,81.0469799 L20.0444178,81.0469799 L20.0444178,74.2684564 Z M20.0444178,97.6543624 L263.295318,97.6543624 L263.295318,240.003356 L20.0444178,240.003356 L20.0444178,97.6543624 Z" id="Shape"></path>
            <circle id="Oval" cx="58" cy="25" r="4"></circle>
            <path d="M0,0 L0,51 L283,51 L283,0 L0,0 Z M57.755102,35.36 C51.6398559,35.36 46.8835534,30.6 46.8835534,24.48 C46.8835534,18.36 51.6398559,13.6 57.755102,13.6 C63.8703481,13.6 68.6266507,18.36 68.6266507,24.48 C68.6266507,30.6 63.8703481,35.36 57.755102,35.36 Z M89.0108043,35.36 C82.8955582,35.36 78.1392557,30.6 78.1392557,24.48 C78.1392557,18.36 82.8955582,13.6 89.0108043,13.6 C95.1260504,13.6 99.8823529,18.36 99.8823529,24.48 C99.8823529,30.6 95.1260504,35.36 89.0108043,35.36 Z M174.62425,35.36 L109.055222,35.36 L109.055222,13.6 L174.62425,13.6 L174.62425,35.36 Z M194.668667,35.36 C188.553421,35.36 183.797119,30.6 183.797119,24.48 C183.797119,18.36 188.553421,13.6 194.668667,13.6 C200.783914,13.6 205.540216,18.36 205.540216,24.48 C205.540216,30.6 200.783914,35.36 194.668667,35.36 Z M225.584634,35.36 C219.469388,35.36 214.713085,30.6 214.713085,24.48 C214.713085,18.36 219.809124,13.6 225.584634,13.6 C231.69988,13.6 236.456182,18.36 236.456182,24.48 C236.456182,30.6 231.69988,35.36 225.584634,35.36 Z" id="Shape"></path>
            <circle id="Oval" cx="89" cy="25" r="4"></circle>
        </g>
    </g>
</svg>