<?xml version="1.0" encoding="UTF-8"?>
<svg width="300px" height="300px" viewBox="0 0 300 300" version="1.1" xmlns="http://www.w3.org/2000/svg" xmlns:xlink="http://www.w3.org/1999/xlink">
    <!-- Generator: Sketch 49.2 (51160) - http://www.bohemiancoding.com/sketch -->
    <title>windows</title>
    <desc>Created with Sketch.</desc>
    <defs></defs>
    <g id="windows" stroke="none" stroke-width="1" fill="none" fill-rule="evenodd">
        <path d="M58.4066319,27 L58.508282,27 L241.593368,27 C243.763377,27 245.523839,28.7563073 245.523839,30.9211948 L245.523839,31.022605 L245.523839,248.230049 L263.06953,248.230049 C265.239538,248.230049 267,249.986356 267,252.151244 L267,252.252654 L267,270.078805 C267,272.243693 265.239538,274 263.06953,274 L262.967879,274 L36.9304705,274 C34.7604619,274 33,272.243693 33,270.078805 L33,269.977395 L33,252.151244 C33,249.986356 34.7604619,248.230049 36.9304705,248.230049 L37.0321206,248.230049 L54.4761614,248.230049 L54.4761614,30.9211948 C54.4761614,28.7563073 56.2366232,27 58.4066319,27 Z M241.696491,256.072438 L241.593368,256.072438 L241.491718,256.072438 L58.4066319,256.072438 L58.3049818,256.072438 L40.860941,256.072438 L40.860941,266.15761 L259.139059,266.15761 L259.139059,256.072438 L241.696491,256.072438 Z M237.662898,34.8423896 L62.3371023,34.8423896 L62.3371023,248.230049 L237.662898,248.230049 L237.662898,34.8423896 Z" id="Shape" fill="#DEDEDE" fill-rule="nonzero"></path>
        <path d="M82.9346163,52 L83.0378483,52 L137.63876,52 L141.573376,52 L159.428099,52 L163.362715,52 L218.065384,52 C220.237681,52 222,53.7638955 222,55.9381366 L222,56.0399849 L222,129.568596 L222,133.506732 L222,151.378905 L222,155.317042 L222,228.061863 C222,230.236105 220.237681,232 218.065384,232 L217.963626,232 L163.362715,232 L159.428099,232 L141.573376,232 L137.63876,232 L82.9346163,232 C80.7637935,232 79,230.236105 79,228.061863 L79,227.960015 L79,55.9381366 C79,53.7638955 80.7637935,52 82.9346163,52 Z M163.362715,59.8762731 L163.362715,129.568596 L214.130767,129.568596 L214.130767,59.8762731 L163.362715,59.8762731 Z M214.130767,155.317042 L163.362715,155.317042 L163.362715,224.123727 L214.130767,224.123727 L214.130767,155.317042 Z M137.63876,224.123727 L137.63876,155.317042 L86.8692325,155.317042 L86.8692325,224.123727 L137.63876,224.123727 Z M86.8692325,129.568596 L137.63876,129.568596 L137.63876,59.8762731 L86.8692325,59.8762731 L86.8692325,129.568596 Z M145.507992,59.8762731 L145.507992,133.506732 L145.507992,137.444869 L141.573376,137.444869 L86.8736567,137.444869 L86.8736567,147.440769 L141.573376,147.440769 L145.507992,147.440769 L145.507992,151.378905 L145.507992,224.123727 L155.493482,224.123727 L155.493482,151.378905 L155.493482,147.440769 L159.428099,147.440769 L214.130767,147.440769 L214.130767,137.444869 L159.428099,137.444869 L155.493482,137.444869 L155.493482,133.506732 L155.493482,59.8762731 L145.507992,59.8762731 Z" id="Shape" fill="#DEDEDE" fill-rule="nonzero"></path>
        <path d="M184.892971,73.7904783 C182.743666,73.7904783 181,72.0473863 181,69.8987885 C181,67.7501906 182.743666,66.0070987 184.892971,66.0070987 C184.946959,66.0070987 204.913757,64.9758301 206.984269,87.7731388 C207.175415,89.9027741 205.602468,91.7931902 203.473591,91.9842739 C201.344714,92.1753576 199.452216,90.6029282 199.261069,88.4747515 C197.863218,73.0947001 184.92799,73.7904783 184.892971,73.7904783 Z" id="Shape" fill="#DEDEDE" fill-rule="nonzero"></path>
        <circle id="Oval" fill="#DEDEDE" cx="205.07004" cy="99.07004" r="4.07004"></circle>
    </g>
</svg>